<svg version="1.1" viewBox="0.0 0.0 601.0 530.0" fill="none" stroke="none" stroke-linecap="square" stroke-miterlimit="10" width="601" height="530" xmlns:xlink="http://www.w3.org/1999/xlink" xmlns="http://www.w3.org/2000/svg"><path fill="#ffffff" d="M0 0L601.0 0L601.0 530.0L0 530.0L0 0Z" fill-rule="nonzero"/><path stroke="#333333" stroke-width="1.0" stroke-linecap="butt" d="M122.5 68.5L122.5 451.5" fill-rule="nonzero"/><path stroke="#cccccc" stroke-width="1.0" stroke-linecap="butt" d="M235.5 68.5L235.5 451.5" fill-rule="nonzero"/><path stroke="#cccccc" stroke-width="1.0" stroke-linecap="butt" d="M348.5 68.5L348.5 451.5" fill-rule="nonzero"/><path stroke="#cccccc" stroke-width="1.0" stroke-linecap="butt" d="M461.5 68.5L461.5 451.5" fill-rule="nonzero"/><path stroke="#cccccc" stroke-width="1.0" stroke-linecap="butt" d="M574.5 68.5L574.5 451.5" fill-rule="nonzero"/><clipPath id="id_0"><path d="M122.5 68.166664L574.5 68.166664L574.5 451.5L122.5 451.5L122.5 68.166664Z" clip-rule="nonzero"/></clipPath><path stroke="#000000" stroke-width="0.0" stroke-linecap="butt" stroke-opacity="0.0" clip-path="url(#id_0)" d="M122.0 182.0L122.0 108.0L567.0 108.0C568.10455 108.0 569.0 108.89543 569.0 110.0L569.0 180.0C569.0 181.10457 568.10455 182.0 567.0 182.0Z" fill-rule="nonzero"/><path fill="#4285f4" clip-path="url(#id_0)" d="M122.0 182.0L122.0 108.0L567.0 108.0C568.10455 108.0 569.0 108.89543 569.0 110.0L569.0 180.0C569.0 181.10457 568.10455 182.0 567.0 182.0Z" fill-rule="nonzero"/><path stroke="#000000" stroke-width="0.0" stroke-linecap="butt" stroke-opacity="0.0" clip-path="url(#id_0)" d="M122.0 297.0L122.0 223.0L418.0 223.0C419.10458 223.0 420.0 223.89543 420.0 225.0L420.0 295.0C420.0 296.10458 419.10458 297.0 418.0 297.0Z" fill-rule="nonzero"/><path fill="#4285f4" clip-path="url(#id_0)" d="M122.0 297.0L122.0 223.0L418.0 223.0C419.10458 223.0 420.0 223.89543 420.0 225.0L420.0 295.0C420.0 296.10458 419.10458 297.0 418.0 297.0Z" fill-rule="nonzero"/><path stroke="#000000" stroke-width="0.0" stroke-linecap="butt" stroke-opacity="0.0" clip-path="url(#id_0)" d="M122.0 411.0L122.0 337.0L214.0 337.0C215.10457 337.0 216.0 337.89542 216.0 339.0L216.0 409.0C216.0 410.10458 215.10457 411.0 214.0 411.0Z" fill-rule="nonzero"/><path fill="#4285f4" clip-path="url(#id_0)" d="M122.0 411.0L122.0 337.0L214.0 337.0C215.10457 337.0 216.0 337.89542 216.0 339.0L216.0 409.0C216.0 410.10458 215.10457 411.0 214.0 411.0Z" fill-rule="nonzero"/><path fill="#000000" d="M293.0625 497.48438L294.1875 497.78125Q293.82812 499.17188 292.90625 499.90625Q291.98438 500.64062 290.64062 500.64062Q289.25 500.64062 288.375 500.07812Q287.5 499.51562 287.04688 498.45312Q286.59375 497.375 286.59375 496.14062Q286.59375 494.79688 287.10938 493.79688Q287.625 492.79688 288.5625 492.28125Q289.51562 491.76562 290.65625 491.76562Q291.9375 491.76562 292.8125 492.42188Q293.70312 493.07812 294.04688 494.26562L292.92188 494.53125Q292.625 493.59375 292.04688 493.17188Q291.48438 492.73438 290.625 492.73438Q289.64062 492.73438 288.96875 493.21875Q288.3125 493.6875 288.03125 494.48438Q287.76562 495.28125 287.76562 496.14062Q287.76562 497.23438 288.07812 498.04688Q288.40625 498.85938 289.07812 499.26562Q289.75 499.67188 290.54688 499.67188Q291.5 499.67188 292.15625 499.125Q292.82812 498.57812 293.0625 497.48438ZM295.40625 497.39062Q295.40625 495.65625 296.35938 494.82812Q297.15625 494.14062 298.3125 494.14062Q299.59375 494.14062 300.40625 494.98438Q301.23438 495.8125 301.23438 497.29688Q301.23438 498.5 300.875 499.1875Q300.51562 499.875 299.8125 500.26562Q299.125 500.64062 298.3125 500.64062Q297.01562 500.64062 296.20312 499.8125Q295.40625 498.96875 295.40625 497.39062ZM296.48438 497.39062Q296.48438 498.57812 297.0 499.17188Q297.53125 499.76562 298.3125 499.76562Q299.10938 499.76562 299.625 499.17188Q300.14062 498.57812 300.14062 497.35938Q300.14062 496.20312 299.60938 495.60938Q299.09375 495.01562 298.3125 495.01562Q297.53125 495.01562 297.0 495.60938Q296.48438 496.1875 296.48438 497.39062ZM302.79688 500.5L302.79688 494.28125L303.73438 494.28125L303.73438 495.15625Q304.03125 494.6875 304.51562 494.42188Q305.0 494.14062 305.625 494.14062Q306.3125 494.14062 306.75 494.42188Q307.20312 494.70312 307.375 495.21875Q308.125 494.14062 309.29688 494.14062Q310.23438 494.14062 310.71875 494.65625Q311.21875 495.15625 311.21875 496.23438L311.21875 500.5L310.17188 500.5L310.17188 496.57812Q310.17188 495.95312 310.0625 495.67188Q309.96875 495.39062 309.70312 495.21875Q309.4375 495.04688 309.0625 495.04688Q308.40625 495.04688 307.96875 495.48438Q307.54688 495.92188 307.54688 496.89062L307.54688 500.5L306.48438 500.5L306.48438 496.45312Q306.48438 495.75 306.21875 495.40625Q305.96875 495.04688 305.39062 495.04688Q304.9375 495.04688 304.5625 495.28125Q304.1875 495.51562 304.01562 495.96875Q303.84375 496.42188 303.84375 497.26562L303.84375 500.5L302.79688 500.5ZM312.79688 502.89062L312.79688 494.28125L313.75 494.28125L313.75 495.07812Q314.09375 494.60938 314.51562 494.375Q314.95312 494.14062 315.5625 494.14062Q316.35938 494.14062 316.96875 494.54688Q317.57812 494.95312 317.875 495.70312Q318.1875 496.45312 318.1875 497.34375Q318.1875 498.29688 317.84375 499.0625Q317.51562 499.82812 316.85938 500.23438Q316.20312 500.64062 315.48438 500.64062Q314.95312 500.64062 314.53125 500.42188Q314.10938 500.1875 313.84375 499.85938L313.84375 502.89062L312.79688 502.89062ZM313.75 497.42188Q313.75 498.625 314.23438 499.20312Q314.71875 499.76562 315.40625 499.76562Q316.10938 499.76562 316.60938 499.17188Q317.10938 498.57812 317.10938 497.32812Q317.10938 496.14062 316.625 495.5625Q316.14062 494.96875 315.45312 494.96875Q314.78125 494.96875 314.26562 495.59375Q313.75 496.21875 313.75 497.42188ZM319.40625 497.39062Q319.40625 495.65625 320.35938 494.82812Q321.15625 494.14062 322.3125 494.14062Q323.59375 494.14062 324.40625 494.98438Q325.23438 495.8125 325.23438 497.29688Q325.23438 498.5 324.875 499.1875Q324.51562 499.875 323.8125 500.26562Q323.125 500.64062 322.3125 500.64062Q321.01562 500.64062 320.20312 499.8125Q319.40625 498.96875 319.40625 497.39062ZM320.48438 497.39062Q320.48438 498.57812 321.0 499.17188Q321.53125 499.76562 322.3125 499.76562Q323.10938 499.76562 323.625 499.17188Q324.14062 498.57812 324.14062 497.35938Q324.14062 496.20312 323.60938 495.60938Q323.09375 495.01562 322.3125 495.01562Q321.53125 495.01562 321.0 495.60938Q320.48438 496.1875 320.48438 497.39062ZM326.79688 500.5L326.79688 494.28125L327.73438 494.28125L327.73438 495.15625Q328.42188 494.14062 329.71875 494.14062Q330.28125 494.14062 330.75 494.34375Q331.23438 494.54688 331.46875 494.875Q331.70312 495.20312 331.79688 495.64062Q331.84375 495.9375 331.84375 496.67188L331.84375 500.5L330.79688 500.5L330.79688 496.71875Q330.79688 496.0625 330.67188 495.75Q330.54688 495.4375 330.23438 495.25Q329.92188 495.04688 329.5 495.04688Q328.82812 495.04688 328.32812 495.48438Q327.84375 495.90625 327.84375 497.09375L327.84375 500.5L326.79688 500.5ZM338.04688 498.5L339.14062 498.625Q338.89062 499.57812 338.1875 500.10938Q337.48438 500.64062 336.40625 500.64062Q335.04688 500.64062 334.23438 499.79688Q333.4375 498.95312 333.4375 497.4375Q333.4375 495.875 334.25 495.01562Q335.0625 494.14062 336.34375 494.14062Q337.59375 494.14062 338.375 494.98438Q339.17188 495.82812 339.17188 497.375Q339.17188 497.46875 339.17188 497.65625L334.53125 497.65625Q334.59375 498.6875 335.10938 499.23438Q335.625 499.76562 336.40625 499.76562Q336.98438 499.76562 337.39062 499.46875Q337.8125 499.15625 338.04688 498.5ZM334.59375 496.79688L338.0625 496.79688Q338.0 496.0 337.67188 495.60938Q337.15625 495.0 336.35938 495.0Q335.625 495.0 335.125 495.48438Q334.64062 495.96875 334.59375 496.79688ZM340.79688 500.5L340.79688 494.28125L341.73438 494.28125L341.73438 495.15625Q342.42188 494.14062 343.71875 494.14062Q344.28125 494.14062 344.75 494.34375Q345.23438 494.54688 345.46875 494.875Q345.70312 495.20312 345.79688 495.64062Q345.84375 495.9375 345.84375 496.67188L345.84375 500.5L344.79688 500.5L344.79688 496.71875Q344.79688 496.0625 344.67188 495.75Q344.54688 495.4375 344.23438 495.25Q343.92188 495.04688 343.5 495.04688Q342.82812 495.04688 342.32812 495.48438Q341.84375 495.90625 341.84375 497.09375L341.84375 500.5L340.79688 500.5ZM350.09375 499.5625L350.25 500.48438Q349.79688 500.57812 349.45312 500.57812Q348.875 500.57812 348.5625 500.40625Q348.25 500.21875 348.10938 499.92188Q347.98438 499.625 347.98438 498.67188L347.98438 495.09375L347.21875 495.09375L347.21875 494.28125L347.98438 494.28125L347.98438 492.73438L349.03125 492.10938L349.03125 494.28125L350.09375 494.28125L350.09375 495.09375L349.03125 495.09375L349.03125 498.73438Q349.03125 499.1875 349.07812 499.3125Q349.14062 499.4375 349.26562 499.51562Q349.39062 499.59375 349.625 499.59375Q349.8125 499.59375 350.09375 499.5625ZM353.54688 497.73438L354.60938 497.64062Q354.6875 498.29688 354.96875 498.70312Q355.25 499.10938 355.82812 499.375Q356.42188 499.625 357.15625 499.625Q357.79688 499.625 358.29688 499.4375Q358.79688 499.23438 359.03125 498.90625Q359.28125 498.5625 359.28125 498.17188Q359.28125 497.76562 359.04688 497.46875Q358.8125 497.15625 358.28125 496.95312Q357.92188 496.8125 356.73438 496.53125Q355.5625 496.25 355.09375 496.0Q354.46875 495.67188 354.17188 495.20312Q353.875 494.71875 353.875 494.125Q353.875 493.48438 354.23438 492.92188Q354.60938 492.34375 355.3125 492.0625Q356.03125 491.76562 356.89062 491.76562Q357.84375 491.76562 358.57812 492.07812Q359.3125 492.375 359.70312 492.98438Q360.09375 493.57812 360.125 494.32812L359.03125 494.40625Q358.9375 493.59375 358.42188 493.1875Q357.92188 492.76562 356.9375 492.76562Q355.90625 492.76562 355.4375 493.14062Q354.96875 493.51562 354.96875 494.04688Q354.96875 494.51562 355.29688 494.8125Q355.625 495.10938 357.0 495.42188Q358.39062 495.73438 358.90625 495.96875Q359.65625 496.32812 360.01562 496.85938Q360.375 497.375 360.375 498.07812Q360.375 498.76562 359.98438 499.375Q359.59375 499.96875 358.85938 500.3125Q358.125 500.64062 357.20312 500.64062Q356.03125 500.64062 355.23438 500.3125Q354.45312 499.96875 354.0 499.28125Q353.5625 498.59375 353.54688 497.73438ZM361.40625 497.39062Q361.40625 495.65625 362.35938 494.82812Q363.15625 494.14062 364.3125 494.14062Q365.59375 494.14062 366.40625 494.98438Q367.23438 495.8125 367.23438 497.29688Q367.23438 498.5 366.875 499.1875Q366.51562 499.875 365.8125 500.26562Q365.125 500.64062 364.3125 500.64062Q363.01562 500.64062 362.20312 499.8125Q361.40625 498.96875 361.40625 497.39062ZM362.48438 497.39062Q362.48438 498.57812 363.0 499.17188Q363.53125 499.76562 364.3125 499.76562Q365.10938 499.76562 365.625 499.17188Q366.14062 498.57812 366.14062 497.35938Q366.14062 496.20312 365.60938 495.60938Q365.09375 495.01562 364.3125 495.01562Q363.53125 495.01562 363.0 495.60938Q362.48438 496.1875 362.48438 497.39062ZM372.875 500.5L372.875 499.57812Q372.14062 500.64062 370.89062 500.64062Q370.34375 500.64062 369.85938 500.4375Q369.39062 500.21875 369.15625 499.90625Q368.92188 499.57812 368.82812 499.10938Q368.76562 498.8125 368.76562 498.125L368.76562 494.28125L369.82812 494.28125L369.82812 497.73438Q369.82812 498.54688 369.89062 498.84375Q369.98438 499.25 370.29688 499.5Q370.625 499.73438 371.10938 499.73438Q371.57812 499.73438 371.98438 499.5Q372.40625 499.25 372.57812 498.82812Q372.76562 498.40625 372.76562 497.60938L372.76562 494.28125L373.8125 494.28125L373.8125 500.5L372.875 500.5ZM375.78125 500.5L375.78125 494.28125L376.73438 494.28125L376.73438 495.21875Q377.09375 494.5625 377.39062 494.35938Q377.70312 494.14062 378.07812 494.14062Q378.60938 494.14062 379.15625 494.46875L378.79688 495.45312Q378.40625 495.21875 378.03125 495.21875Q377.67188 495.21875 377.39062 495.4375Q377.125 495.64062 377.01562 496.01562Q376.82812 496.57812 376.82812 497.23438L376.82812 500.5L375.78125 500.5ZM383.85938 498.21875L384.89062 498.35938Q384.71875 499.42188 384.01562 500.03125Q383.3125 500.64062 382.29688 500.64062Q381.01562 500.64062 380.23438 499.8125Q379.46875 498.96875 379.46875 497.40625Q379.46875 496.40625 379.79688 495.65625Q380.14062 494.89062 380.8125 494.51562Q381.5 494.14062 382.3125 494.14062Q383.3125 494.14062 383.95312 494.65625Q384.60938 495.15625 384.79688 496.10938L383.76562 496.26562Q383.625 495.64062 383.25 495.32812Q382.875 495.0 382.34375 495.0Q381.54688 495.0 381.04688 495.57812Q380.54688 496.14062 380.54688 497.375Q380.54688 498.64062 381.03125 499.20312Q381.51562 499.76562 382.28125 499.76562Q382.90625 499.76562 383.3125 499.39062Q383.73438 499.01562 383.85938 498.21875ZM390.04688 498.5L391.14062 498.625Q390.89062 499.57812 390.1875 500.10938Q389.48438 500.64062 388.40625 500.64062Q387.04688 500.64062 386.23438 499.79688Q385.4375 498.95312 385.4375 497.4375Q385.4375 495.875 386.25 495.01562Q387.0625 494.14062 388.34375 494.14062Q389.59375 494.14062 390.375 494.98438Q391.17188 495.82812 391.17188 497.375Q391.17188 497.46875 391.17188 497.65625L386.53125 497.65625Q386.59375 498.6875 387.10938 499.23438Q387.625 499.76562 388.40625 499.76562Q388.98438 499.76562 389.39062 499.46875Q389.8125 499.15625 390.04688 498.5ZM386.59375 496.79688L390.0625 496.79688Q390.0 496.0 389.67188 495.60938Q389.15625 495.0 388.35938 495.0Q387.625 495.0 387.125 495.48438Q386.64062 495.96875 386.59375 496.79688ZM395.875 500.5L395.875 491.90625L397.01562 491.90625L397.01562 496.17188L401.28125 491.90625L402.82812 491.90625L399.21875 495.39062L402.98438 500.5L401.48438 500.5L398.42188 496.15625L397.01562 497.51562L397.01562 500.5L395.875 500.5ZM403.875 500.5L403.875 491.90625L407.10938 491.90625Q408.09375 491.90625 408.6875 492.17188Q409.28125 492.4375 409.60938 492.98438Q409.95312 493.51562 409.95312 494.10938Q409.95312 494.65625 409.65625 495.14062Q409.35938 495.625 408.75 495.92188Q409.53125 496.15625 409.9375 496.71875Q410.35938 497.26562 410.35938 498.01562Q410.35938 498.60938 410.10938 499.14062Q409.85938 499.65625 409.48438 499.9375Q409.10938 500.21875 408.53125 500.35938Q407.96875 500.5 407.15625 500.5L403.875 500.5ZM405.01562 495.51562L406.875 495.51562Q407.625 495.51562 407.95312 495.42188Q408.39062 495.29688 408.60938 495.0Q408.82812 494.6875 408.82812 494.23438Q408.82812 493.8125 408.625 493.48438Q408.42188 493.15625 408.03125 493.04688Q407.65625 492.92188 406.73438 492.92188L405.01562 492.92188L405.01562 495.51562ZM405.01562 499.48438L407.15625 499.48438Q407.70312 499.48438 407.92188 499.4375Q408.32812 499.375 408.57812 499.21875Q408.84375 499.04688 409.01562 498.73438Q409.1875 498.42188 409.1875 498.01562Q409.1875 497.53125 408.9375 497.17188Q408.70312 496.8125 408.26562 496.67188Q407.82812 496.53125 407.0 496.53125L405.01562 496.53125L405.01562 499.48438Z" fill-rule="nonzero"/><path fill="#000000" d="M37.5 287.91144L28.90625 287.91144L28.90625 284.66144Q28.90625 283.8177 28.984375 283.36456Q29.09375 282.72394 29.390625 282.30206Q29.6875 281.86456 30.21875 281.61456Q30.75 281.34894 31.390625 281.34894Q32.484375 281.34894 33.25 282.05206Q34.0 282.73956 34.0 284.5677L34.0 286.7708L37.5 286.7708L37.5 287.91144ZM33.0 286.7708L33.0 284.55206Q33.0 283.4427 32.59375 282.98956Q32.171875 282.5208 31.421875 282.5208Q30.890625 282.5208 30.515625 282.80206Q30.125 283.0677 30.0 283.5052Q29.921875 283.80206 29.921875 284.5677L29.921875 286.7708L33.0 286.7708ZM37.5 280.05206L31.28125 280.05206L31.28125 279.09894L32.21875 279.09894Q31.5625 278.73956 31.359375 278.4427Q31.140625 278.1302 31.140625 277.7552Q31.140625 277.22394 31.46875 276.67706L32.453125 277.03644Q32.21875 277.42706 32.21875 277.80206Q32.21875 278.16144 32.4375 278.4427Q32.640625 278.7083 33.015625 278.8177Q33.578125 279.0052 34.234375 279.0052L37.5 279.0052L37.5 280.05206ZM34.390625 276.42706Q32.65625 276.42706 31.828125 275.47394Q31.140625 274.67706 31.140625 273.5208Q31.140625 272.23956 31.984375 271.42706Q32.8125 270.59894 34.296875 270.59894Q35.5 270.59894 36.1875 270.9583Q36.875 271.3177 37.265625 272.0208Q37.640625 272.7083 37.640625 273.5208Q37.640625 274.8177 36.8125 275.6302Q35.96875 276.42706 34.390625 276.42706ZM34.390625 275.34894Q35.578125 275.34894 36.171875 274.8333Q36.765625 274.30206 36.765625 273.5208Q36.765625 272.72394 36.171875 272.2083Q35.578125 271.6927 34.359375 271.6927Q33.203125 271.6927 32.609375 272.22394Q32.015625 272.73956 32.015625 273.5208Q32.015625 274.30206 32.609375 274.8333Q33.1875 275.34894 34.390625 275.34894ZM30.140625 269.05206L28.90625 269.05206L28.90625 267.98956L30.140625 267.98956L30.140625 269.05206ZM39.921875 270.3802L39.015625 270.1927Q39.09375 269.86456 39.09375 269.6927Q39.09375 269.36456 38.875 269.2083Q38.671875 269.05206 37.8125 269.05206L31.28125 269.05206L31.28125 267.98956L37.84375 267.98956Q38.984375 267.98956 39.4375 268.28644Q40.03125 268.67706 40.03125 269.55206Q40.03125 269.98956 39.921875 270.3802ZM35.5 261.78644L35.625 260.6927Q36.578125 260.9427 37.109375 261.6458Q37.640625 262.34894 37.640625 263.42706Q37.640625 264.78644 36.796875 265.59894Q35.953125 266.3958 34.4375 266.3958Q32.875 266.3958 32.015625 265.5833Q31.140625 264.7708 31.140625 263.48956Q31.140625 262.23956 31.984375 261.4583Q32.828125 260.66144 34.375 260.66144Q34.46875 260.66144 34.65625 260.66144L34.65625 265.30206Q35.6875 265.23956 36.234375 264.72394Q36.765625 264.2083 36.765625 263.42706Q36.765625 262.84894 36.46875 262.4427Q36.15625 262.0208 35.5 261.78644ZM33.796875 265.23956L33.796875 261.7708Q33.0 261.8333 32.609375 262.16144Q32.0 262.67706 32.0 263.47394Q32.0 264.2083 32.484375 264.7083Q32.96875 265.1927 33.796875 265.23956ZM35.21875 254.97395L35.359375 253.9427Q36.421875 254.11458 37.03125 254.8177Q37.640625 255.52083 37.640625 256.53644Q37.640625 257.8177 36.8125 258.59894Q35.96875 259.36456 34.40625 259.36456Q33.40625 259.36456 32.65625 259.03644Q31.890625 258.6927 31.515625 258.0208Q31.140625 257.3333 31.140625 256.5208Q31.140625 255.52083 31.65625 254.8802Q32.15625 254.22395 33.109375 254.03645L33.265625 255.0677Q32.640625 255.20833 32.328125 255.58333Q32.0 255.95833 32.0 256.48956Q32.0 257.28644 32.578125 257.78644Q33.140625 258.28644 34.375 258.28644Q35.640625 258.28644 36.203125 257.80206Q36.765625 257.3177 36.765625 256.55206Q36.765625 255.92708 36.390625 255.52083Q36.015625 255.09895 35.21875 254.97395ZM36.5625 250.73958L37.484375 250.58333Q37.578125 251.03645 37.578125 251.3802Q37.578125 251.95833 37.40625 252.27083Q37.21875 252.58333 36.921875 252.72395Q36.625 252.84895 35.671875 252.84895L32.09375 252.84895L32.09375 253.61458L31.28125 253.61458L31.28125 252.84895L29.734375 252.84895L29.109375 251.80208L31.28125 251.80208L31.28125 250.73958L32.09375 250.73958L32.09375 251.80208L35.734375 251.80208Q36.1875 251.80208 36.3125 251.7552Q36.4375 251.6927 36.515625 251.5677Q36.59375 251.4427 36.59375 251.20833Q36.59375 251.02083 36.5625 250.73958Z" fill-rule="nonzero"/><path fill="#000000" d="M59.046875 146.63985L60.109375 146.5461Q60.1875 147.20235 60.46875 147.6086Q60.75 148.01485 61.328125 148.28047Q61.921875 148.53047 62.65625 148.53047Q63.296875 148.53047 63.796875 148.34297Q64.296875 148.13985 64.53125 147.81172Q64.78125 147.46797 64.78125 147.07735Q64.78125 146.6711 64.546875 146.37422Q64.3125 146.06172 63.78125 145.8586Q63.421875 145.71797 62.234375 145.43672Q61.0625 145.15547 60.59375 144.90547Q59.96875 144.57735 59.671875 144.1086Q59.375 143.62422 59.375 143.03047Q59.375 142.38985 59.734375 141.82735Q60.109375 141.24922 60.8125 140.96797Q61.53125 140.6711 62.390625 140.6711Q63.34375 140.6711 64.078125 140.9836Q64.8125 141.28047 65.203125 141.88985Q65.59375 142.4836 65.625 143.2336L64.53125 143.31172Q64.4375 142.49922 63.921875 142.09297Q63.421875 141.6711 62.4375 141.6711Q61.40625 141.6711 60.9375 142.0461Q60.46875 142.4211 60.46875 142.95235Q60.46875 143.4211 60.796875 143.71797Q61.125 144.01485 62.5 144.32735Q63.890625 144.63985 64.40625 144.87422Q65.15625 145.2336 65.515625 145.76485Q65.875 146.28047 65.875 146.9836Q65.875 147.6711 65.484375 148.28047Q65.09375 148.87422 64.359375 149.21797Q63.625 149.5461 62.703125 149.5461Q61.53125 149.5461 60.734375 149.21797Q59.953125 148.87422 59.5 148.18672Q59.0625 147.49922 59.046875 146.63985ZM69.015625 149.40547L66.65625 143.18672L67.765625 143.18672L69.109375 146.90547Q69.3125 147.51485 69.5 148.15547Q69.640625 147.6711 69.890625 146.9836L71.28125 143.18672L72.359375 143.18672L70.0 149.40547L69.015625 149.40547ZM77.546875 147.40547L78.640625 147.53047Q78.390625 148.4836 77.6875 149.01485Q76.984375 149.5461 75.90625 149.5461Q74.546875 149.5461 73.734375 148.70235Q72.9375 147.8586 72.9375 146.34297Q72.9375 144.78047 73.75 143.9211Q74.5625 143.0461 75.84375 143.0461Q77.09375 143.0461 77.875 143.88985Q78.671875 144.7336 78.671875 146.28047Q78.671875 146.37422 78.671875 146.56172L74.03125 146.56172Q74.09375 147.59297 74.609375 148.13985Q75.125 148.6711 75.90625 148.6711Q76.484375 148.6711 76.890625 148.37422Q77.3125 148.06172 77.546875 147.40547ZM74.09375 145.70235L77.5625 145.70235Q77.5 144.90547 77.171875 144.51485Q76.65625 143.90547 75.859375 143.90547Q75.125 143.90547 74.625 144.38985Q74.140625 144.87422 74.09375 145.70235ZM80.265625 149.40547L80.265625 140.81172L81.328125 140.81172L81.328125 149.40547L80.265625 149.40547ZM85.59375 148.46797L85.75 149.38985Q85.296875 149.4836 84.953125 149.4836Q84.375 149.4836 84.0625 149.31172Q83.75 149.12422 83.609375 148.82735Q83.484375 148.53047 83.484375 147.57735L83.484375 143.99922L82.71875 143.99922L82.71875 143.18672L83.484375 143.18672L83.484375 141.63985L84.53125 141.01485L84.53125 143.18672L85.59375 143.18672L85.59375 143.99922L84.53125 143.99922L84.53125 147.63985Q84.53125 148.09297 84.578125 148.21797Q84.640625 148.34297 84.765625 148.4211Q84.890625 148.49922 85.125 148.49922Q85.3125 148.49922 85.59375 148.46797ZM90.546875 147.40547L91.640625 147.53047Q91.390625 148.4836 90.6875 149.01485Q89.984375 149.5461 88.90625 149.5461Q87.546875 149.5461 86.734375 148.70235Q85.9375 147.8586 85.9375 146.34297Q85.9375 144.78047 86.75 143.9211Q87.5625 143.0461 88.84375 143.0461Q90.09375 143.0461 90.875 143.88985Q91.671875 144.7336 91.671875 146.28047Q91.671875 146.37422 91.671875 146.56172L87.03125 146.56172Q87.09375 147.59297 87.609375 148.13985Q88.125 148.6711 88.90625 148.6711Q89.484375 148.6711 89.890625 148.37422Q90.3125 148.06172 90.546875 147.40547ZM87.09375 145.70235L90.5625 145.70235Q90.5 144.90547 90.171875 144.51485Q89.65625 143.90547 88.859375 143.90547Q88.125 143.90547 87.625 144.38985Q87.140625 144.87422 87.09375 145.70235ZM96.046875 146.63985L97.109375 146.5461Q97.1875 147.20235 97.46875 147.6086Q97.75 148.01485 98.328125 148.28047Q98.921875 148.53047 99.65625 148.53047Q100.296875 148.53047 100.796875 148.34297Q101.296875 148.13985 101.53125 147.81172Q101.78125 147.46797 101.78125 147.07735Q101.78125 146.6711 101.546875 146.37422Q101.3125 146.06172 100.78125 145.8586Q100.421875 145.71797 99.234375 145.43672Q98.0625 145.15547 97.59375 144.90547Q96.96875 144.57735 96.671875 144.1086Q96.375 143.62422 96.375 143.03047Q96.375 142.38985 96.734375 141.82735Q97.109375 141.24922 97.8125 140.96797Q98.53125 140.6711 99.390625 140.6711Q100.34375 140.6711 101.078125 140.9836Q101.8125 141.28047 102.203125 141.88985Q102.59375 142.4836 102.625 143.2336L101.53125 143.31172Q101.4375 142.49922 100.921875 142.09297Q100.421875 141.6711 99.4375 141.6711Q98.40625 141.6711 97.9375 142.0461Q97.46875 142.4211 97.46875 142.95235Q97.46875 143.4211 97.796875 143.71797Q98.125 144.01485 99.5 144.32735Q100.890625 144.63985 101.40625 144.87422Q102.15625 145.2336 102.515625 145.76485Q102.875 146.28047 102.875 146.9836Q102.875 147.6711 102.484375 148.28047Q102.09375 148.87422 101.359375 149.21797Q100.625 149.5461 99.703125 149.5461Q98.53125 149.5461 97.734375 149.21797Q96.953125 148.87422 96.5 148.18672Q96.0625 147.49922 96.046875 146.63985ZM104.296875 142.03047L104.296875 140.81172L105.359375 140.81172L105.359375 142.03047L104.296875 142.03047ZM104.296875 149.40547L104.296875 143.18672L105.359375 143.18672L105.359375 149.40547L104.296875 149.40547ZM109.59375 148.46797L109.75 149.38985Q109.296875 149.4836 108.953125 149.4836Q108.375 149.4836 108.0625 149.31172Q107.75 149.12422 107.609375 148.82735Q107.484375 148.53047 107.484375 147.57735L107.484375 143.99922L106.71875 143.99922L106.71875 143.18672L107.484375 143.18672L107.484375 141.63985L108.53125 141.01485L108.53125 143.18672L109.59375 143.18672L109.59375 143.99922L108.53125 143.99922L108.53125 147.63985Q108.53125 148.09297 108.578125 148.21797Q108.640625 148.34297 108.765625 148.4211Q108.890625 148.49922 109.125 148.49922Q109.3125 148.49922 109.59375 148.46797ZM114.546875 147.40547L115.640625 147.53047Q115.390625 148.4836 114.6875 149.01485Q113.984375 149.5461 112.90625 149.5461Q111.546875 149.5461 110.734375 148.70235Q109.9375 147.8586 109.9375 146.34297Q109.9375 144.78047 110.75 143.9211Q111.5625 143.0461 112.84375 143.0461Q114.09375 143.0461 114.875 143.88985Q115.671875 144.7336 115.671875 146.28047Q115.671875 146.37422 115.671875 146.56172L111.03125 146.56172Q111.09375 147.59297 111.609375 148.13985Q112.125 148.6711 112.90625 148.6711Q113.484375 148.6711 113.890625 148.37422Q114.3125 148.06172 114.546875 147.40547ZM111.09375 145.70235L114.5625 145.70235Q114.5 144.90547 114.171875 144.51485Q113.65625 143.90547 112.859375 143.90547Q112.125 143.90547 111.625 144.38985Q111.140625 144.87422 111.09375 145.70235Z" fill-rule="nonzero"/><path fill="#000000" d="M61.4375 263.83334L61.4375 255.2396L65.25 255.2396Q66.40625 255.2396 67.0 255.47397Q67.59375 255.70834 67.953125 256.3021Q68.3125 256.88022 68.3125 257.58334Q68.3125 258.50522 67.71875 259.13022Q67.125 259.75522 65.890625 259.9271Q66.34375 260.14584 66.578125 260.34897Q67.078125 260.8021 67.515625 261.4896L69.015625 263.83334L67.578125 263.83334L66.453125 262.0521Q65.953125 261.27084 65.625 260.8646Q65.3125 260.45834 65.046875 260.3021Q64.796875 260.13022 64.53125 260.0521Q64.34375 260.02084 63.90625 260.02084L62.578125 260.02084L62.578125 263.83334L61.4375 263.83334ZM62.578125 259.03647L65.03125 259.03647Q65.796875 259.03647 66.234375 258.88022Q66.6875 258.70834 66.90625 258.3646Q67.140625 258.00522 67.140625 257.58334Q67.140625 256.97397 66.6875 256.58334Q66.25 256.19272 65.296875 256.19272L62.578125 256.19272L62.578125 259.03647ZM74.546875 261.83334L75.640625 261.95834Q75.390625 262.91147 74.6875 263.44272Q73.984375 263.97397 72.90625 263.97397Q71.546875 263.97397 70.734375 263.13022Q69.9375 262.28647 69.9375 260.77084Q69.9375 259.20834 70.75 258.34897Q71.5625 257.47397 72.84375 257.47397Q74.09375 257.47397 74.875 258.31772Q75.671875 259.16147 75.671875 260.70834Q75.671875 260.8021 75.671875 260.9896L71.03125 260.9896Q71.09375 262.02084 71.609375 262.56772Q72.125 263.09897 72.90625 263.09897Q73.484375 263.09897 73.890625 262.8021Q74.3125 262.4896 74.546875 261.83334ZM71.09375 260.13022L74.5625 260.13022Q74.5 259.33334 74.171875 258.94272Q73.65625 258.33334 72.859375 258.33334Q72.125 258.33334 71.625 258.81772Q71.140625 259.3021 71.09375 260.13022ZM81.359375 263.06772Q80.765625 263.56772 80.21875 263.77084Q79.6875 263.97397 79.0625 263.97397Q78.03125 263.97397 77.484375 263.47397Q76.9375 262.97397 76.9375 262.19272Q76.9375 261.7396 77.140625 261.3646Q77.34375 260.97397 77.6875 260.75522Q78.03125 260.52084 78.453125 260.41147Q78.75 260.31772 79.390625 260.2396Q80.65625 260.09897 81.265625 259.88022Q81.265625 259.66147 81.265625 259.6146Q81.265625 258.95834 80.96875 258.69272Q80.5625 258.34897 79.765625 258.34897Q79.03125 258.34897 78.671875 258.6146Q78.3125 258.8646 78.140625 259.52084L77.109375 259.38022Q77.25 258.72397 77.578125 258.31772Q77.90625 257.91147 78.515625 257.69272Q79.125 257.47397 79.921875 257.47397Q80.71875 257.47397 81.21875 257.66147Q81.71875 257.84897 81.953125 258.13022Q82.1875 258.41147 82.28125 258.84897Q82.328125 259.1146 82.328125 259.81772L82.328125 261.22397Q82.328125 262.69272 82.390625 263.08334Q82.46875 263.47397 82.671875 263.83334L81.5625 263.83334Q81.40625 263.50522 81.359375 263.06772ZM81.265625 260.70834Q80.6875 260.94272 79.546875 261.1146Q78.890625 261.20834 78.625 261.33334Q78.359375 261.44272 78.203125 261.66147Q78.0625 261.88022 78.0625 262.16147Q78.0625 262.58334 78.375 262.8646Q78.703125 263.14584 79.3125 263.14584Q79.921875 263.14584 80.390625 262.88022Q80.875 262.6146 81.09375 262.14584Q81.265625 261.78647 81.265625 261.09897L81.265625 260.70834ZM84.265625 263.83334L84.265625 255.2396L85.328125 255.2396L85.328125 263.83334L84.265625 263.83334ZM88.4375 263.83334L86.53125 257.6146L87.625 257.6146L88.609375 261.20834L88.984375 262.53647Q89.015625 262.44272 89.3125 261.25522L90.296875 257.6146L91.375 257.6146L92.3125 261.22397L92.625 262.41147L92.984375 261.20834L94.046875 257.6146L95.078125 257.6146L93.125 263.83334L92.03125 263.83334L91.046875 260.09897L90.796875 259.0521L89.546875 263.83334L88.4375 263.83334ZM95.90625 260.72397Q95.90625 258.9896 96.859375 258.16147Q97.65625 257.47397 98.8125 257.47397Q100.09375 257.47397 100.90625 258.31772Q101.734375 259.14584 101.734375 260.63022Q101.734375 261.83334 101.375 262.52084Q101.015625 263.20834 100.3125 263.59897Q99.625 263.97397 98.8125 263.97397Q97.515625 263.97397 96.703125 263.14584Q95.90625 262.3021 95.90625 260.72397ZM96.984375 260.72397Q96.984375 261.91147 97.5 262.50522Q98.03125 263.09897 98.8125 263.09897Q99.609375 263.09897 100.125 262.50522Q100.640625 261.91147 100.640625 260.69272Q100.640625 259.53647 100.109375 258.94272Q99.59375 258.34897 98.8125 258.34897Q98.03125 258.34897 97.5 258.94272Q96.984375 259.52084 96.984375 260.72397ZM103.28125 263.83334L103.28125 257.6146L104.234375 257.6146L104.234375 258.5521Q104.59375 257.89584 104.890625 257.69272Q105.203125 257.47397 105.578125 257.47397Q106.109375 257.47397 106.65625 257.8021L106.296875 258.78647Q105.90625 258.5521 105.53125 258.5521Q105.171875 258.5521 104.890625 258.77084Q104.625 258.97397 104.515625 259.34897Q104.328125 259.91147 104.328125 260.56772L104.328125 263.83334L103.28125 263.83334ZM107.265625 263.83334L107.265625 255.2396L108.328125 255.2396L108.328125 263.83334L107.265625 263.83334ZM114.328125 263.83334L114.328125 263.0521Q113.734375 263.97397 112.59375 263.97397Q111.84375 263.97397 111.21875 263.56772Q110.59375 263.14584 110.25 262.41147Q109.90625 261.6771 109.90625 260.72397Q109.90625 259.8021 110.21875 259.03647Q110.53125 258.27084 111.15625 257.88022Q111.78125 257.47397 112.546875 257.47397Q113.109375 257.47397 113.546875 257.70834Q113.984375 257.94272 114.265625 258.31772L114.265625 255.2396L115.3125 255.2396L115.3125 263.83334L114.328125 263.83334ZM111.0 260.72397Q111.0 261.9271 111.5 262.52084Q112.0 263.09897 112.6875 263.09897Q113.375 263.09897 113.859375 262.53647Q114.34375 261.97397 114.34375 260.81772Q114.34375 259.53647 113.84375 258.94272Q113.359375 258.34897 112.640625 258.34897Q111.9375 258.34897 111.46875 258.9271Q111.0 259.4896 111.0 260.72397Z" fill-rule="nonzero"/><path fill="#000000" d="M62.046875 375.49557L63.109375 375.40182Q63.1875 376.05807 63.46875 376.46432Q63.75 376.87057 64.328125 377.1362Q64.921875 377.3862 65.65625 377.3862Q66.296875 377.3862 66.796875 377.1987Q67.296875 376.99557 67.53125 376.66745Q67.78125 376.3237 67.78125 375.93307Q67.78125 375.52682 67.546875 375.22995Q67.3125 374.91745 66.78125 374.71432Q66.421875 374.5737 65.234375 374.29245Q64.0625 374.0112 63.59375 373.7612Q62.96875 373.43307 62.671875 372.96432Q62.375 372.47995 62.375 371.8862Q62.375 371.24557 62.734375 370.68307Q63.109375 370.10495 63.8125 369.8237Q64.53125 369.52682 65.390625 369.52682Q66.34375 369.52682 67.078125 369.83932Q67.8125 370.1362 68.203125 370.74557Q68.59375 371.33932 68.625 372.08932L67.53125 372.16745Q67.4375 371.35495 66.921875 370.9487Q66.421875 370.52682 65.4375 370.52682Q64.40625 370.52682 63.9375 370.90182Q63.46875 371.27682 63.46875 371.80807Q63.46875 372.27682 63.796875 372.5737Q64.125 372.87057 65.5 373.18307Q66.890625 373.49557 67.40625 373.72995Q68.15625 374.08932 68.515625 374.62057Q68.875 375.1362 68.875 375.83932Q68.875 376.52682 68.484375 377.1362Q68.09375 377.72995 67.359375 378.0737Q66.625 378.40182 65.703125 378.40182Q64.53125 378.40182 63.734375 378.0737Q62.953125 377.72995 62.5 377.04245Q62.0625 376.35495 62.046875 375.49557ZM72.015625 378.2612L69.65625 372.04245L70.765625 372.04245L72.109375 375.7612Q72.3125 376.37057 72.5 377.0112Q72.640625 376.52682 72.890625 375.83932L74.28125 372.04245L75.359375 372.04245L73.0 378.2612L72.015625 378.2612ZM80.546875 376.2612L81.640625 376.3862Q81.390625 377.33932 80.6875 377.87057Q79.984375 378.40182 78.90625 378.40182Q77.546875 378.40182 76.734375 377.55807Q75.9375 376.71432 75.9375 375.1987Q75.9375 373.6362 76.75 372.77682Q77.5625 371.90182 78.84375 371.90182Q80.09375 371.90182 80.875 372.74557Q81.671875 373.58932 81.671875 375.1362Q81.671875 375.22995 81.671875 375.41745L77.03125 375.41745Q77.09375 376.4487 77.609375 376.99557Q78.125 377.52682 78.90625 377.52682Q79.484375 377.52682 79.890625 377.22995Q80.3125 376.91745 80.546875 376.2612ZM77.09375 374.55807L80.5625 374.55807Q80.5 373.7612 80.171875 373.37057Q79.65625 372.7612 78.859375 372.7612Q78.125 372.7612 77.625 373.24557Q77.140625 373.72995 77.09375 374.55807ZM83.265625 378.2612L83.265625 369.66745L84.328125 369.66745L84.328125 378.2612L83.265625 378.2612ZM88.59375 377.3237L88.75 378.24557Q88.296875 378.33932 87.953125 378.33932Q87.375 378.33932 87.0625 378.16745Q86.75 377.97995 86.609375 377.68307Q86.484375 377.3862 86.484375 376.43307L86.484375 372.85495L85.71875 372.85495L85.71875 372.04245L86.484375 372.04245L86.484375 370.49557L87.53125 369.87057L87.53125 372.04245L88.59375 372.04245L88.59375 372.85495L87.53125 372.85495L87.53125 376.49557Q87.53125 376.9487 87.578125 377.0737Q87.640625 377.1987 87.765625 377.27682Q87.890625 377.35495 88.125 377.35495Q88.3125 377.35495 88.59375 377.3237ZM93.546875 376.2612L94.640625 376.3862Q94.390625 377.33932 93.6875 377.87057Q92.984375 378.40182 91.90625 378.40182Q90.546875 378.40182 89.734375 377.55807Q88.9375 376.71432 88.9375 375.1987Q88.9375 373.6362 89.75 372.77682Q90.5625 371.90182 91.84375 371.90182Q93.09375 371.90182 93.875 372.74557Q94.671875 373.58932 94.671875 375.1362Q94.671875 375.22995 94.671875 375.41745L90.03125 375.41745Q90.09375 376.4487 90.609375 376.99557Q91.125 377.52682 91.90625 377.52682Q92.484375 377.52682 92.890625 377.22995Q93.3125 376.91745 93.546875 376.2612ZM90.09375 374.55807L93.5625 374.55807Q93.5 373.7612 93.171875 373.37057Q92.65625 372.7612 91.859375 372.7612Q91.125 372.7612 90.625 373.24557Q90.140625 373.72995 90.09375 374.55807ZM99.46875 378.2612L99.46875 369.66745L100.59375 369.66745L100.59375 373.1987L105.0625 373.1987L105.0625 369.66745L106.203125 369.66745L106.203125 378.2612L105.0625 378.2612L105.0625 374.21432L100.59375 374.21432L100.59375 378.2612L99.46875 378.2612ZM108.421875 378.2612L108.421875 369.66745L109.578125 369.66745L114.09375 376.41745L114.09375 369.66745L115.1875 369.66745L115.1875 378.2612L114.015625 378.2612L109.5 371.5112L109.5 378.2612L108.421875 378.2612Z" fill-rule="nonzero"/><path fill="#000000" d="M119.5 464.26562Q119.5 462.73438 119.8125 461.8125Q120.125 460.875 120.734375 460.375Q121.359375 459.875 122.296875 459.875Q122.984375 459.875 123.5 460.15625Q124.03125 460.4375 124.375 460.96875Q124.71875 461.48438 124.90625 462.23438Q125.09375 462.98438 125.09375 464.26562Q125.09375 465.78125 124.78125 466.70312Q124.484375 467.625 123.859375 468.14062Q123.25 468.64062 122.296875 468.64062Q121.0625 468.64062 120.34375 467.75Q119.5 466.6875 119.5 464.26562ZM120.578125 464.26562Q120.578125 466.375 121.078125 467.07812Q121.578125 467.78125 122.296875 467.78125Q123.03125 467.78125 123.515625 467.07812Q124.015625 466.375 124.015625 464.26562Q124.015625 462.14062 123.515625 461.45312Q123.03125 460.75 122.28125 460.75Q121.5625 460.75 121.125 461.35938Q120.578125 462.14062 120.578125 464.26562Z" fill-rule="nonzero"/><path fill="#000000" d="M232.96875 468.5L231.92188 468.5L231.92188 461.78125Q231.53125 462.14062 230.90625 462.51562Q230.29688 462.875 229.8125 463.04688L229.8125 462.03125Q230.6875 461.60938 231.34375 461.03125Q232.01562 460.4375 232.29688 459.875L232.96875 459.875L232.96875 468.5ZM236.0 464.26562Q236.0 462.73438 236.3125 461.8125Q236.625 460.875 237.23438 460.375Q237.85938 459.875 238.79688 459.875Q239.48438 459.875 240.0 460.15625Q240.53125 460.4375 240.875 460.96875Q241.21875 461.48438 241.40625 462.23438Q241.59375 462.98438 241.59375 464.26562Q241.59375 465.78125 241.28125 466.70312Q240.98438 467.625 240.35938 468.14062Q239.75 468.64062 238.79688 468.64062Q237.5625 468.64062 236.84375 467.75Q236.0 466.6875 236.0 464.26562ZM237.07812 464.26562Q237.07812 466.375 237.57812 467.07812Q238.07812 467.78125 238.79688 467.78125Q239.53125 467.78125 240.01562 467.07812Q240.51562 466.375 240.51562 464.26562Q240.51562 462.14062 240.01562 461.45312Q239.53125 460.75 238.78125 460.75Q238.0625 460.75 237.625 461.35938Q237.07812 462.14062 237.07812 464.26562Z" fill-rule="nonzero"/><path fill="#000000" d="M347.54688 467.48438L347.54688 468.5L341.85938 468.5Q341.85938 468.125 341.98438 467.76562Q342.20312 467.1875 342.67188 466.625Q343.15625 466.0625 344.0625 465.32812Q345.46875 464.17188 345.95312 463.5Q346.45312 462.82812 346.45312 462.23438Q346.45312 461.60938 346.0 461.1875Q345.54688 460.75 344.82812 460.75Q344.0625 460.75 343.60938 461.20312Q343.15625 461.65625 343.14062 462.46875L342.0625 462.35938Q342.17188 461.14062 342.89062 460.51562Q343.625 459.875 344.85938 459.875Q346.09375 459.875 346.8125 460.5625Q347.53125 461.25 347.53125 462.26562Q347.53125 462.78125 347.3125 463.28125Q347.10938 463.76562 346.60938 464.32812Q346.125 464.875 345.0 465.82812Q344.04688 466.625 343.76562 466.92188Q343.5 467.20312 343.32812 467.48438L347.54688 467.48438ZM349.0 464.26562Q349.0 462.73438 349.3125 461.8125Q349.625 460.875 350.23438 460.375Q350.85938 459.875 351.79688 459.875Q352.48438 459.875 353.0 460.15625Q353.53125 460.4375 353.875 460.96875Q354.21875 461.48438 354.40625 462.23438Q354.59375 462.98438 354.59375 464.26562Q354.59375 465.78125 354.28125 466.70312Q353.98438 467.625 353.35938 468.14062Q352.75 468.64062 351.79688 468.64062Q350.5625 468.64062 349.84375 467.75Q349.0 466.6875 349.0 464.26562ZM350.07812 464.26562Q350.07812 466.375 350.57812 467.07812Q351.07812 467.78125 351.79688 467.78125Q352.53125 467.78125 353.01562 467.07812Q353.51562 466.375 353.51562 464.26562Q353.51562 462.14062 353.01562 461.45312Q352.53125 460.75 351.78125 460.75Q351.0625 460.75 350.625 461.35938Q350.07812 462.14062 350.07812 464.26562Z" fill-rule="nonzero"/><path fill="#000000" d="M455.0 466.23438L456.0625 466.09375Q456.23438 466.98438 456.67188 467.39062Q457.10938 467.78125 457.73438 467.78125Q458.48438 467.78125 459.0 467.26562Q459.51562 466.75 459.51562 465.98438Q459.51562 465.26562 459.03125 464.79688Q458.5625 464.3125 457.82812 464.3125Q457.53125 464.3125 457.07812 464.4375L457.20312 463.5Q457.3125 463.51562 457.375 463.51562Q458.04688 463.51562 458.57812 463.17188Q459.125 462.8125 459.125 462.07812Q459.125 461.5 458.73438 461.125Q458.34375 460.73438 457.71875 460.73438Q457.10938 460.73438 456.6875 461.125Q456.28125 461.51562 456.17188 462.28125L455.10938 462.09375Q455.29688 461.04688 455.98438 460.46875Q456.67188 459.875 457.6875 459.875Q458.39062 459.875 458.98438 460.1875Q459.57812 460.48438 459.89062 461.0Q460.20312 461.51562 460.20312 462.10938Q460.20312 462.65625 459.90625 463.125Q459.60938 463.57812 459.03125 463.84375Q459.78125 464.01562 460.20312 464.57812Q460.625 465.125 460.625 465.96875Q460.625 467.09375 459.79688 467.875Q458.98438 468.65625 457.73438 468.65625Q456.60938 468.65625 455.85938 467.98438Q455.10938 467.29688 455.0 466.23438ZM462.0 464.26562Q462.0 462.73438 462.3125 461.8125Q462.625 460.875 463.23438 460.375Q463.85938 459.875 464.79688 459.875Q465.48438 459.875 466.0 460.15625Q466.53125 460.4375 466.875 460.96875Q467.21875 461.48438 467.40625 462.23438Q467.59375 462.98438 467.59375 464.26562Q467.59375 465.78125 467.28125 466.70312Q466.98438 467.625 466.35938 468.14062Q465.75 468.64062 464.79688 468.64062Q463.5625 468.64062 462.84375 467.75Q462.0 466.6875 462.0 464.26562ZM463.07812 464.26562Q463.07812 466.375 463.57812 467.07812Q464.07812 467.78125 464.79688 467.78125Q465.53125 467.78125 466.01562 467.07812Q466.51562 466.375 466.51562 464.26562Q466.51562 462.14062 466.01562 461.45312Q465.53125 460.75 464.78125 460.75Q464.0625 460.75 463.625 461.35938Q463.07812 462.14062 463.07812 464.26562Z" fill-rule="nonzero"/><path fill="#000000" d="M571.375 468.5L571.375 466.4375L567.65625 466.4375L567.65625 465.46875L571.5781 459.90625L572.4375 459.90625L572.4375 465.46875L573.59375 465.46875L573.59375 466.4375L572.4375 466.4375L572.4375 468.5L571.375 468.5ZM571.375 465.46875L571.375 461.60938L568.6875 465.46875L571.375 465.46875ZM575.0 464.26562Q575.0 462.73438 575.3125 461.8125Q575.625 460.875 576.2344 460.375Q576.8594 459.875 577.7969 459.875Q578.4844 459.875 579.0 460.15625Q579.53125 460.4375 579.875 460.96875Q580.21875 461.48438 580.40625 462.23438Q580.59375 462.98438 580.59375 464.26562Q580.59375 465.78125 580.28125 466.70312Q579.9844 467.625 579.3594 468.14062Q578.75 468.64062 577.7969 468.64062Q576.5625 468.64062 575.84375 467.75Q575.0 466.6875 575.0 464.26562ZM576.0781 464.26562Q576.0781 466.375 576.5781 467.07812Q577.0781 467.78125 577.7969 467.78125Q578.53125 467.78125 579.0156 467.07812Q579.5156 466.375 579.5156 464.26562Q579.5156 462.14062 579.0156 461.45312Q578.53125 460.75 577.78125 460.75Q577.0625 460.75 576.625 461.35938Q576.0781 462.14062 576.0781 464.26562Z" fill-rule="nonzero"/><path fill="#757575" d="M28.046875 45.5L28.046875 31.1875L33.4375 31.1875Q34.875 31.1875 35.625 31.3125Q36.671875 31.5 37.390625 32.0Q38.109375 32.484375 38.53125 33.375Q38.96875 34.265625 38.96875 35.328125Q38.96875 37.15625 37.796875 38.421875Q36.640625 39.671875 33.609375 39.671875L29.9375 39.671875L29.9375 45.5L28.046875 45.5ZM29.9375 37.984375L33.640625 37.984375Q35.46875 37.984375 36.234375 37.3125Q37.015625 36.625 37.015625 35.375Q37.015625 34.484375 36.5625 33.84375Q36.109375 33.203125 35.375 33.0Q34.890625 32.875 33.59375 32.875L29.9375 32.875L29.9375 37.984375ZM40.796875 45.5L40.796875 35.125L42.375 35.125L42.375 36.703125Q42.984375 35.59375 43.5 35.25Q44.015625 34.890625 44.625 34.890625Q45.515625 34.890625 46.4375 35.453125L45.828125 37.09375Q45.1875 36.703125 44.546875 36.703125Q43.96875 36.703125 43.5 37.0625Q43.046875 37.40625 42.84375 38.015625Q42.5625 38.953125 42.5625 40.0625L42.5625 45.5L40.796875 45.5ZM47.171875 40.3125Q47.171875 37.4375 48.765625 36.046875Q50.109375 34.890625 52.03125 34.890625Q54.171875 34.890625 55.515625 36.296875Q56.875 37.703125 56.875 40.171875Q56.875 42.171875 56.28125 43.328125Q55.6875 44.46875 54.53125 45.109375Q53.390625 45.734375 52.03125 45.734375Q49.84375 45.734375 48.5 44.34375Q47.171875 42.9375 47.171875 40.3125ZM48.96875 40.3125Q48.96875 42.3125 49.828125 43.296875Q50.703125 44.28125 52.03125 44.28125Q53.34375 44.28125 54.203125 43.296875Q55.078125 42.296875 55.078125 40.25Q55.078125 38.328125 54.203125 37.34375Q53.328125 36.34375 52.03125 36.34375Q50.703125 36.34375 49.828125 37.34375Q48.96875 38.328125 48.96875 40.3125ZM58.8125 33.21875L58.8125 31.1875L60.5625 31.1875L60.5625 33.21875L58.8125 33.21875ZM56.578125 49.53125L56.90625 48.03125Q57.4375 48.171875 57.75 48.171875Q58.28125 48.171875 58.546875 47.8125Q58.8125 47.453125 58.8125 46.03125L58.8125 35.125L60.5625 35.125L60.5625 46.0625Q60.5625 47.984375 60.0625 48.734375Q59.4375 49.703125 57.953125 49.703125Q57.25 49.703125 56.578125 49.53125ZM69.921875 42.15625L71.734375 42.390625Q71.3125 43.96875 70.140625 44.859375Q68.984375 45.734375 67.171875 45.734375Q64.90625 45.734375 63.5625 44.34375Q62.234375 42.9375 62.234375 40.40625Q62.234375 37.78125 63.578125 36.34375Q64.921875 34.890625 67.078125 34.890625Q69.15625 34.890625 70.46875 36.3125Q71.796875 37.71875 71.796875 40.296875Q71.796875 40.453125 71.78125 40.765625L64.046875 40.765625Q64.140625 42.46875 65.015625 43.375Q65.890625 44.28125 67.1875 44.28125Q68.15625 44.28125 68.828125 43.78125Q69.515625 43.265625 69.921875 42.15625ZM64.140625 39.3125L69.9375 39.3125Q69.828125 38.015625 69.28125 37.359375Q68.4375 36.34375 67.09375 36.34375Q65.890625 36.34375 65.0625 37.15625Q64.234375 37.953125 64.140625 39.3125ZM80.59375 41.703125L82.3125 41.921875Q82.03125 43.71875 80.859375 44.734375Q79.703125 45.734375 78.0 45.734375Q75.875 45.734375 74.578125 44.34375Q73.28125 42.953125 73.28125 40.359375Q73.28125 38.671875 73.828125 37.421875Q74.390625 36.15625 75.53125 35.53125Q76.671875 34.890625 78.015625 34.890625Q79.703125 34.890625 80.765625 35.75Q81.84375 36.609375 82.15625 38.171875L80.4375 38.4375Q80.203125 37.390625 79.578125 36.875Q78.953125 36.34375 78.078125 36.34375Q76.75 36.34375 75.921875 37.296875Q75.09375 38.25 75.09375 40.296875Q75.09375 42.390625 75.890625 43.34375Q76.6875 44.28125 77.984375 44.28125Q79.015625 44.28125 79.703125 43.65625Q80.40625 43.015625 80.59375 41.703125ZM87.65625 43.921875L87.90625 45.484375Q87.171875 45.640625 86.578125 45.640625Q85.625 45.640625 85.09375 45.34375Q84.578125 45.03125 84.359375 44.546875Q84.140625 44.046875 84.140625 42.46875L84.140625 36.5L82.859375 36.5L82.859375 35.125L84.140625 35.125L84.140625 32.5625L85.890625 31.5L85.890625 35.125L87.65625 35.125L87.65625 36.5L85.890625 36.5L85.890625 42.5625Q85.890625 43.3125 85.984375 43.53125Q86.078125 43.734375 86.28125 43.875Q86.5 44.0 86.890625 44.0Q87.171875 44.0 87.65625 43.921875ZM106.265625 40.484375L108.15625 40.953125Q107.5625 43.296875 106.015625 44.53125Q104.46875 45.75 102.21875 45.75Q99.90625 45.75 98.453125 44.8125Q97.015625 43.859375 96.25 42.078125Q95.5 40.28125 95.5 38.234375Q95.5 36.0 96.34375 34.34375Q97.203125 32.671875 98.78125 31.8125Q100.359375 30.9375 102.25 30.9375Q104.40625 30.9375 105.859375 32.03125Q107.328125 33.125 107.90625 35.109375L106.046875 35.546875Q105.546875 33.984375 104.59375 33.28125Q103.65625 32.5625 102.21875 32.5625Q100.5625 32.5625 99.453125 33.359375Q98.34375 34.140625 97.890625 35.484375Q97.453125 36.8125 97.453125 38.21875Q97.453125 40.046875 97.984375 41.421875Q98.515625 42.78125 99.640625 43.453125Q100.765625 44.125 102.0625 44.125Q103.65625 44.125 104.765625 43.203125Q105.875 42.28125 106.265625 40.484375ZM109.171875 40.3125Q109.171875 37.4375 110.765625 36.046875Q112.109375 34.890625 114.03125 34.890625Q116.171875 34.890625 117.515625 36.296875Q118.875 37.703125 118.875 40.171875Q118.875 42.171875 118.28125 43.328125Q117.6875 44.46875 116.53125 45.109375Q115.390625 45.734375 114.03125 45.734375Q111.84375 45.734375 110.5 44.34375Q109.171875 42.9375 109.171875 40.3125ZM110.96875 40.3125Q110.96875 42.3125 111.828125 43.296875Q112.703125 44.28125 114.03125 44.28125Q115.34375 44.28125 116.203125 43.296875Q117.078125 42.296875 117.078125 40.25Q117.078125 38.328125 116.203125 37.34375Q115.328125 36.34375 114.03125 36.34375Q112.703125 36.34375 111.828125 37.34375Q110.96875 38.328125 110.96875 40.3125ZM120.8125 45.5L120.8125 35.125L122.390625 35.125L122.390625 36.578125Q122.875 35.828125 123.6875 35.359375Q124.5 34.890625 125.53125 34.890625Q126.6875 34.890625 127.421875 35.375Q128.15625 35.84375 128.46875 36.703125Q129.70312 34.890625 131.67188 34.890625Q133.21875 34.890625 134.04688 35.75Q134.875 36.609375 134.875 38.375L134.875 45.5L133.125 45.5L133.125 38.96875Q133.125 37.90625 132.95312 37.453125Q132.78125 36.984375 132.32812 36.703125Q131.89062 36.421875 131.28125 36.421875Q130.1875 36.421875 129.45312 37.15625Q128.73438 37.875 128.73438 39.46875L128.73438 45.5L126.984375 45.5L126.984375 38.765625Q126.984375 37.59375 126.546875 37.015625Q126.125 36.421875 125.140625 36.421875Q124.40625 36.421875 123.765625 36.8125Q123.140625 37.203125 122.859375 37.953125Q122.578125 38.703125 122.578125 40.125L122.578125 45.5L120.8125 45.5ZM137.8125 49.46875L137.8125 35.125L139.42188 35.125L139.42188 36.46875Q139.98438 35.6875 140.6875 35.296875Q141.40625 34.890625 142.42188 34.890625Q143.75 34.890625 144.76562 35.578125Q145.78125 36.265625 146.29688 37.515625Q146.82812 38.75 146.82812 40.234375Q146.82812 41.828125 146.25 43.109375Q145.6875 44.375 144.59375 45.0625Q143.5 45.734375 142.29688 45.734375Q141.42188 45.734375 140.71875 45.359375Q140.03125 44.984375 139.57812 44.421875L139.57812 49.46875L137.8125 49.46875ZM139.40625 40.375Q139.40625 42.375 140.21875 43.328125Q141.03125 44.28125 142.1875 44.28125Q143.35938 44.28125 144.1875 43.296875Q145.03125 42.3125 145.03125 40.21875Q145.03125 38.25 144.20312 37.265625Q143.39062 36.265625 142.26562 36.265625Q141.14062 36.265625 140.26562 37.328125Q139.40625 38.375 139.40625 40.375ZM148.17188 40.3125Q148.17188 37.4375 149.76562 36.046875Q151.10938 34.890625 153.03125 34.890625Q155.17188 34.890625 156.51562 36.296875Q157.875 37.703125 157.875 40.171875Q157.875 42.171875 157.28125 43.328125Q156.6875 44.46875 155.53125 45.109375Q154.39062 45.734375 153.03125 45.734375Q150.84375 45.734375 149.5 44.34375Q148.17188 42.9375 148.17188 40.3125ZM149.96875 40.3125Q149.96875 42.3125 150.82812 43.296875Q151.70312 44.28125 153.03125 44.28125Q154.34375 44.28125 155.20312 43.296875Q156.07812 42.296875 156.07812 40.25Q156.07812 38.328125 155.20312 37.34375Q154.32812 36.34375 153.03125 36.34375Q151.70312 36.34375 150.82812 37.34375Q149.96875 38.328125 149.96875 40.3125ZM159.8125 45.5L159.8125 35.125L161.40625 35.125L161.40625 36.609375Q162.54688 34.890625 164.70312 34.890625Q165.64062 34.890625 166.42188 35.234375Q167.21875 35.5625 167.60938 36.109375Q168.0 36.65625 168.15625 37.40625Q168.25 37.90625 168.25 39.125L168.25 45.5L166.48438 45.5L166.48438 39.1875Q166.48438 38.109375 166.28125 37.578125Q166.07812 37.046875 165.54688 36.734375Q165.03125 36.421875 164.32812 36.421875Q163.20312 36.421875 162.39062 37.140625Q161.57812 37.84375 161.57812 39.828125L161.57812 45.5L159.8125 45.5ZM177.92188 42.15625L179.73438 42.390625Q179.3125 43.96875 178.14062 44.859375Q176.98438 45.734375 175.17188 45.734375Q172.90625 45.734375 171.5625 44.34375Q170.23438 42.9375 170.23438 40.40625Q170.23438 37.78125 171.57812 36.34375Q172.92188 34.890625 175.07812 34.890625Q177.15625 34.890625 178.46875 36.3125Q179.79688 37.71875 179.79688 40.296875Q179.79688 40.453125 179.78125 40.765625L172.04688 40.765625Q172.14062 42.46875 173.01562 43.375Q173.89062 44.28125 175.1875 44.28125Q176.15625 44.28125 176.82812 43.78125Q177.51562 43.265625 177.92188 42.15625ZM172.14062 39.3125L177.9375 39.3125Q177.82812 38.015625 177.28125 37.359375Q176.4375 36.34375 175.09375 36.34375Q173.89062 36.34375 173.0625 37.15625Q172.23438 37.953125 172.14062 39.3125ZM181.8125 45.5L181.8125 35.125L183.40625 35.125L183.40625 36.609375Q184.54688 34.890625 186.70312 34.890625Q187.64062 34.890625 188.42188 35.234375Q189.21875 35.5625 189.60938 36.109375Q190.0 36.65625 190.15625 37.40625Q190.25 37.90625 190.25 39.125L190.25 45.5L188.48438 45.5L188.48438 39.1875Q188.48438 38.109375 188.28125 37.578125Q188.07812 37.046875 187.54688 36.734375Q187.03125 36.421875 186.32812 36.421875Q185.20312 36.421875 184.39062 37.140625Q183.57812 37.84375 183.57812 39.828125L183.57812 45.5L181.8125 45.5ZM196.65625 43.921875L196.90625 45.484375Q196.17188 45.640625 195.57812 45.640625Q194.625 45.640625 194.09375 45.34375Q193.57812 45.03125 193.35938 44.546875Q193.14062 44.046875 193.14062 42.46875L193.14062 36.5L191.85938 36.5L191.85938 35.125L193.14062 35.125L193.14062 32.5625L194.89062 31.5L194.89062 35.125L196.65625 35.125L196.65625 36.5L194.89062 36.5L194.89062 42.5625Q194.89062 43.3125 194.98438 43.53125Q195.07812 43.734375 195.28125 43.875Q195.5 44.0 195.89062 44.0Q196.17188 44.0 196.65625 43.921875ZM204.40625 40.90625L206.1875 40.75Q206.3125 41.8125 206.76562 42.5Q207.23438 43.1875 208.20312 43.625Q209.1875 44.046875 210.42188 44.046875Q211.5 44.046875 212.32812 43.734375Q213.15625 43.40625 213.5625 42.84375Q213.96875 42.28125 213.96875 41.609375Q213.96875 40.9375 213.57812 40.4375Q213.1875 39.9375 212.29688 39.59375Q211.71875 39.359375 209.73438 38.890625Q207.76562 38.421875 206.98438 38.0Q205.95312 37.46875 205.45312 36.671875Q204.95312 35.875 204.95312 34.890625Q204.95312 33.796875 205.5625 32.859375Q206.17188 31.921875 207.35938 31.4375Q208.54688 30.9375 209.98438 30.9375Q211.57812 30.9375 212.79688 31.453125Q214.01562 31.96875 214.65625 32.96875Q215.3125 33.953125 215.35938 35.21875L213.54688 35.359375Q213.40625 34.0 212.5625 33.3125Q211.71875 32.609375 210.0625 32.609375Q208.34375 32.609375 207.54688 33.25Q206.76562 33.875 206.76562 34.75Q206.76562 35.53125 207.32812 36.03125Q207.875 36.53125 210.1875 37.046875Q212.5 37.5625 213.35938 37.953125Q214.60938 38.53125 215.20312 39.421875Q215.79688 40.296875 215.79688 41.453125Q215.79688 42.59375 215.14062 43.609375Q214.48438 44.625 213.25 45.1875Q212.03125 45.75 210.5 45.75Q208.5625 45.75 207.25 45.1875Q205.9375 44.609375 205.1875 43.46875Q204.4375 42.328125 204.40625 40.90625ZM217.17188 40.3125Q217.17188 37.4375 218.76562 36.046875Q220.10938 34.890625 222.03125 34.890625Q224.17188 34.890625 225.51562 36.296875Q226.875 37.703125 226.875 40.171875Q226.875 42.171875 226.28125 43.328125Q225.6875 44.46875 224.53125 45.109375Q223.39062 45.734375 222.03125 45.734375Q219.84375 45.734375 218.5 44.34375Q217.17188 42.9375 217.17188 40.3125ZM218.96875 40.3125Q218.96875 42.3125 219.82812 43.296875Q220.70312 44.28125 222.03125 44.28125Q223.34375 44.28125 224.20312 43.296875Q225.07812 42.296875 225.07812 40.25Q225.07812 38.328125 224.20312 37.34375Q223.32812 36.34375 222.03125 36.34375Q220.70312 36.34375 219.82812 37.34375Q218.96875 38.328125 218.96875 40.3125ZM235.60938 45.5L235.60938 43.96875Q234.40625 45.734375 232.32812 45.734375Q231.40625 45.734375 230.60938 45.390625Q229.8125 45.03125 229.42188 44.5Q229.04688 43.96875 228.89062 43.1875Q228.78125 42.671875 228.78125 41.546875L228.78125 35.125L230.53125 35.125L230.53125 40.875Q230.53125 42.25 230.64062 42.734375Q230.8125 43.421875 231.34375 43.828125Q231.89062 44.21875 232.67188 44.21875Q233.46875 44.21875 234.15625 43.8125Q234.85938 43.40625 235.14062 42.71875Q235.4375 42.015625 235.4375 40.6875L235.4375 35.125L237.1875 35.125L237.1875 45.5L235.60938 45.5ZM239.79688 45.5L239.79688 35.125L241.375 35.125L241.375 36.703125Q241.98438 35.59375 242.5 35.25Q243.01562 34.890625 243.625 34.890625Q244.51562 34.890625 245.4375 35.453125L244.82812 37.09375Q244.1875 36.703125 243.54688 36.703125Q242.96875 36.703125 242.5 37.0625Q242.04688 37.40625 241.84375 38.015625Q241.5625 38.953125 241.5625 40.0625L241.5625 45.5L239.79688 45.5ZM253.59375 41.703125L255.3125 41.921875Q255.03125 43.71875 253.85938 44.734375Q252.70312 45.734375 251.0 45.734375Q248.875 45.734375 247.57812 44.34375Q246.28125 42.953125 246.28125 40.359375Q246.28125 38.671875 246.82812 37.421875Q247.39062 36.15625 248.53125 35.53125Q249.67188 34.890625 251.01562 34.890625Q252.70312 34.890625 253.76562 35.75Q254.84375 36.609375 255.15625 38.171875L253.4375 38.4375Q253.20312 37.390625 252.57812 36.875Q251.95312 36.34375 251.07812 36.34375Q249.75 36.34375 248.92188 37.296875Q248.09375 38.25 248.09375 40.296875Q248.09375 42.390625 248.89062 43.34375Q249.6875 44.28125 250.98438 44.28125Q252.01562 44.28125 252.70312 43.65625Q253.40625 43.015625 253.59375 41.703125ZM263.92188 42.15625L265.73438 42.390625Q265.3125 43.96875 264.14062 44.859375Q262.98438 45.734375 261.17188 45.734375Q258.90625 45.734375 257.5625 44.34375Q256.23438 42.9375 256.23438 40.40625Q256.23438 37.78125 257.57812 36.34375Q258.92188 34.890625 261.07812 34.890625Q263.15625 34.890625 264.46875 36.3125Q265.79688 37.71875 265.79688 40.296875Q265.79688 40.453125 265.78125 40.765625L258.04688 40.765625Q258.14062 42.46875 259.01562 43.375Q259.89062 44.28125 261.1875 44.28125Q262.15625 44.28125 262.82812 43.78125Q263.51562 43.265625 263.92188 42.15625ZM258.14062 39.3125L263.9375 39.3125Q263.82812 38.015625 263.28125 37.359375Q262.4375 36.34375 261.09375 36.34375Q259.89062 36.34375 259.0625 37.15625Q258.23438 37.953125 258.14062 39.3125ZM273.40625 40.90625L275.1875 40.75Q275.3125 41.8125 275.76562 42.5Q276.23438 43.1875 277.20312 43.625Q278.1875 44.046875 279.42188 44.046875Q280.5 44.046875 281.32812 43.734375Q282.15625 43.40625 282.5625 42.84375Q282.96875 42.28125 282.96875 41.609375Q282.96875 40.9375 282.57812 40.4375Q282.1875 39.9375 281.29688 39.59375Q280.71875 39.359375 278.73438 38.890625Q276.76562 38.421875 275.98438 38.0Q274.95312 37.46875 274.45312 36.671875Q273.95312 35.875 273.95312 34.890625Q273.95312 33.796875 274.5625 32.859375Q275.17188 31.921875 276.35938 31.4375Q277.54688 30.9375 278.98438 30.9375Q280.57812 30.9375 281.79688 31.453125Q283.01562 31.96875 283.65625 32.96875Q284.3125 33.953125 284.35938 35.21875L282.54688 35.359375Q282.40625 34.0 281.5625 33.3125Q280.71875 32.609375 279.0625 32.609375Q277.34375 32.609375 276.54688 33.25Q275.76562 33.875 275.76562 34.75Q275.76562 35.53125 276.32812 36.03125Q276.875 36.53125 279.1875 37.046875Q281.5 37.5625 282.35938 37.953125Q283.60938 38.53125 284.20312 39.421875Q284.79688 40.296875 284.79688 41.453125Q284.79688 42.59375 284.14062 43.609375Q283.48438 44.625 282.25 45.1875Q281.03125 45.75 279.5 45.75Q277.5625 45.75 276.25 45.1875Q274.9375 44.609375 274.1875 43.46875Q273.4375 42.328125 273.40625 40.90625ZM286.82812 33.203125L286.82812 31.1875L288.59375 31.1875L288.59375 33.203125L286.82812 33.203125ZM286.82812 45.5L286.82812 35.125L288.59375 35.125L288.59375 45.5L286.82812 45.5ZM289.89062 45.5L289.89062 44.078125L296.5 36.5Q295.375 36.546875 294.51562 36.546875L290.28125 36.546875L290.28125 35.125L298.76562 35.125L298.76562 36.296875L293.14062 42.875L292.0625 44.078125Q293.23438 43.984375 294.28125 43.984375L299.07812 43.984375L299.07812 45.5L289.89062 45.5ZM307.92188 42.15625L309.73438 42.390625Q309.3125 43.96875 308.14062 44.859375Q306.98438 45.734375 305.17188 45.734375Q302.90625 45.734375 301.5625 44.34375Q300.23438 42.9375 300.23438 40.40625Q300.23438 37.78125 301.57812 36.34375Q302.92188 34.890625 305.07812 34.890625Q307.15625 34.890625 308.46875 36.3125Q309.79688 37.71875 309.79688 40.296875Q309.79688 40.453125 309.78125 40.765625L302.04688 40.765625Q302.14062 42.46875 303.01562 43.375Q303.89062 44.28125 305.1875 44.28125Q306.15625 44.28125 306.82812 43.78125Q307.51562 43.265625 307.92188 42.15625ZM302.14062 39.3125L307.9375 39.3125Q307.82812 38.015625 307.28125 37.359375Q306.4375 36.34375 305.09375 36.34375Q303.89062 36.34375 303.0625 37.15625Q302.23438 37.953125 302.14062 39.3125Z" fill-rule="nonzero"/></svg>